<svg width="47" height="16" viewBox="0 0 47 16" fill="none" xmlns="http://www.w3.org/2000/svg">
<path d="M1.00006 7.70018C1.00006 8.00018 1.10006 8.30018 1.40006 8.50018C3.80006 10.6002 6.30006 12.7002 8.70006 14.8002C9.90006 15.9002 11.7001 14.1002 10.5001 13.0002C8.90006 11.6002 7.30006 10.2002 5.70006 8.80018C18.9001 8.70018 32.0001 8.60018 45.2001 8.50018C46.8001 8.50018 46.8001 6.00018 45.2001 6.00018C32.0001 6.10018 18.8001 6.20018 5.60006 6.30018C7.20006 5.00018 8.70006 3.60018 10.3001 2.30018C11.5001 1.20018 9.70006 -0.499822 8.50006 0.500178C6.10006 2.50018 3.80006 4.50018 1.40006 6.60018C1.00006 6.90018 0.900057 7.30018 1.00006 7.70018Z" fill="#8AD4E4"/>
</svg>
