<svg width="161" height="164" viewBox="0 0 161 164" fill="none" xmlns="http://www.w3.org/2000/svg">
<g clip-path="url(#clip0)">
<g opacity="0.59">
<path opacity="0.5" d="M80.5 164V83.6001H80.6L145.5 130.8C140.5 137.6 134.6 143.6 127.8 148.5L80.5 83.7001L105.3 160.1C97.3 162.6 88.9 163.9 80.5 164ZM80.4 83.6001V86.6001C80.6 86.6001 80.9 86.6001 81.3 86.4001L80.4 83.6001ZM80.6 83.7001L82.3 86.0001C82.5 85.8001 82.7 85.6001 82.9 85.4001L80.6 83.7001ZM55.6 160C47.6 157.4 40 153.5 33.1 148.6L78.7 86.0001C78.9 86.2001 79.2 86.3001 79.5 86.4001L55.6 160ZM15.4 130.9C10.4 124.1 6.6 116.5 3.9 108.5L77.5 84.5001C77.6 84.8001 77.7 85.1001 77.9 85.3001L15.4 130.9ZM156.9 108.4L80.5 83.6001L83.2 84.5001C83.3 84.1001 83.4 83.8001 83.4 83.6001H82.1H83.4L160.8 83.3001V83.5001C160.8 92.0001 159.5 100.4 156.9 108.4ZM0 83.8001V83.5001C0 75.1001 1.3 66.7001 3.9 58.7001L79.7 83.2001H80L15.3 36.2001C20.2 29.4001 26.2 23.4001 33 18.4001L80.2 83.1001H80.3L55.5 7.1001C63.5 4.5001 71.9 3.2001 80.3 3.1001L80.4 80.5001C80.2 80.5001 79.9 80.5001 79.5 80.7001L80.4 83.3001H80.5V83.1001V83.3001H80.6L80.5 83.5001H77.5L0 83.6001V83.8001ZM77.5 82.6001C77.4 82.9001 77.4 83.1001 77.4 83.3001H79.7L77.5 82.6001ZM78.6 81.1001C78.4 81.3001 78.2 81.5001 78 81.7001L80.1 83.3001H80.2L78.6 81.1001ZM83.4 83.5001H80.4L81.1 83.3001H83.3L83.4 83.5001ZM80.5 83.5001L80.8 83.3001H81.2L80.5 83.5001ZM83.3 82.6001C83.2 82.3001 83.1 82.0001 82.9 81.8001L145.4 36.2001C150.4 43.0001 154.3 50.6001 156.9 58.6001L83.3 82.6001ZM82.2 81.1001C82 80.9001 81.7 80.8001 81.4 80.7001L105.1 7.0001C113.1 9.6001 120.7 13.4001 127.6 18.4001L82.2 81.1001Z" fill="#E8E8E8"/>
</g>
<path d="M86.2 117.8C74.1 117.8 54.5 103.5 52 103.5C49.5 103.5 48.9 115.6 47.5 116.5C46.2 117.4 40.6 120.1 38.3 121.9C36.1 123.7 58 142.7 84.7 142.7C111.5 142.7 127.6 125.5 128.5 123.5C129.4 121.5 117.1 117.2 117.1 117.2C117.1 117.2 116.2 105.6 114.6 104.5C113.3 103.3 100.5 117.8 86.2 117.8Z" fill="#F9AD89"/>
<path d="M50.3 74.0998C50.3 74.0998 46.3 86.4998 46.8 90.3998C47.3 94.2998 73.9 112.4 85.5 111.8C97.1 111.2 114.6 94.2998 116.6 91.5998C118.6 88.8998 116.6 73.7998 116.6 73.7998L50.3 74.0998Z" fill="#F9AD89"/>
<path d="M46.8 90.4001C47.3 94.3001 73.9 112.4 85.5 111.8C85.9 111.8 86.3 111.7 86.7 111.7C86.9 106.4 86 94.1001 86 94.1001L60.3 74.1001H50.2C50.3 74.1001 46.3 86.5001 46.8 90.4001Z" fill="#F69169"/>
<path d="M80.8001 53.1001C74.6001 53.1001 50.3 66.8001 50.3 74.1001C50.3 81.4001 76.4 96.1001 85.5 96.1001C94.5 96.1001 116.6 80.1001 116.6 73.9001C116.6 67.6001 92.1001 53.1001 80.8001 53.1001Z" fill="#F69169"/>
<path d="M130.7 78.4998C122.4 80.9998 113.9 82.4998 105.2 82.1998C93 81.7998 80.4 77.4998 71.9 68.7998C67.6 72.0998 64.5 75.5998 64.5 78.1998C64.5 85.4998 90.6 100.2 99.7 100.2C108.4 100.1 129.5 84.9998 130.7 78.4998Z" fill="#F9AD89"/>
<path d="M82.6 82.1998C90.8842 82.1998 97.6 78.0808 97.6 72.9998C97.6 67.9188 90.8842 63.7998 82.6 63.7998C74.3157 63.7998 67.6 67.9188 67.6 72.9998C67.6 78.0808 74.3157 82.1998 82.6 82.1998Z" fill="#7AA073"/>
<path d="M76.8 46.1002C76.8 46.1002 72.8 70.1002 73.2 74.1002C73.6 78.1002 88.4 79.5002 92.5 74.5002C96.5 69.5002 85.6 44.7002 85.6 44.7002L76.8 46.1002Z" fill="#7FC574"/>
<path d="M76.8 46.1002C76.8 46.1002 75.8 52.1002 74.8 58.5002C77.3 57.7002 79.7 56.6002 81.8 55.1002C84 53.5002 85.9 51.4002 87.2 48.9002C86.2 46.4002 85.5 44.7002 85.5 44.7002L76.8 46.1002Z" fill="#7AA073"/>
<path d="M94.2114 49.6128C101.124 42.7006 101.124 31.4937 94.2114 24.5815C87.2992 17.6693 76.0923 17.6693 69.1801 24.5815C62.2679 31.4937 62.2679 42.7006 69.1801 49.6128C76.0923 56.5251 87.2992 56.5251 94.2114 49.6128Z" fill="#F47F62"/>
<path d="M86.8 47.9001C77 47.9001 69 39.9001 69 30.1001C69 27.8001 69.5 25.6001 70.3 23.6001C66.5 26.9001 64 31.7001 64 37.1001C64 46.9001 71.9 54.8001 81.7 54.8001C89.2 54.8001 95.6 50.1001 98.2 43.6001C95.1 46.2001 91.1 47.9001 86.8 47.9001Z" fill="#F26349"/>
<path d="M90.5 88.6001C90.5 90.8001 88.2 92.6001 85.5 92.6001C82.7 92.6001 80.5 90.8001 80.5 88.6001C80.5 86.4001 82.8 84.6001 85.5 84.6001C88.3 84.6001 90.5 86.4001 90.5 88.6001Z" fill="#7FC574"/>
<path d="M86.9 91C84.1 91 81.9 89.2 81.9 87C81.9 86.5 82 86 82.3 85.5C81.2 86.2 80.5 87.3 80.5 88.6C80.5 90.8 82.8 92.6 85.5 92.6C87.6 92.6 89.4 91.5 90.2 90.1C89.3 90.7 88.2 91 86.9 91Z" fill="#7AA073"/>
<path d="M113.7 73C113.7 75.2 111.4 77 108.7 77C105.9 77 103.7 75.2 103.7 73C103.7 70.8 106 69 108.7 69C111.4 69 113.7 70.8 113.7 73Z" fill="#7FC574"/>
<path d="M110.1 75.5C107.3 75.5 105.1 73.7 105.1 71.5C105.1 71 105.2 70.5 105.5 70C104.4 70.7 103.7 71.8 103.7 73.1C103.7 75.3 106 77.1 108.7 77.1C110.8 77.1 112.6 76 113.4 74.6C112.4 75.1 111.3 75.5 110.1 75.5Z" fill="#7AA073"/>
<path d="M64 74.6001C64 76.8001 61.7 78.6001 59 78.6001C56.2 78.6001 54 76.8001 54 74.6001C54 72.4001 56.3 70.6001 59 70.6001C61.7 70.6001 64 72.4001 64 74.6001Z" fill="#7FC574"/>
<path d="M60.4 77C57.6 77 55.4 75.2 55.4 73C55.4 72.5 55.5 72 55.8 71.5C54.7 72.2 54 73.3 54 74.6C54 76.8 56.3 78.6 59 78.6C61.1 78.6 62.9 77.5 63.7 76.1C62.7 76.7 61.6 77 60.4 77Z" fill="#7AA073"/>
<path d="M71 20.2999C71 20.2999 80.7 12.7999 93.8 19.9999C93.8 19.9999 96.5 10.3999 92.7 6.2999C92.7 6.2999 88.1 8.2999 86.8 9.8999C86.8 9.8999 84.2 2.0999 80.7 -0.100098C80.7 -0.100098 76.5 3.2999 75.8 10.3999C75.8 10.3999 72 8.1999 69.2 8.3999C69.3 8.4999 67.4 17.1999 71 20.2999Z" fill="#FFCD05"/>
<path d="M93.8 20.0998C93.8 20.0998 94.1 19.1998 94.3 17.7998C93.5 17.2998 92.7 16.8998 91.9 16.5998C89.1 15.4998 86 15.2998 83.1 14.7998C80.6 14.3998 78.1 13.8998 75.6 13.0998C73.1 12.2998 70.5 10.9998 69.2 8.7998C68.9 10.3998 67.8 17.5998 71 20.2998C71 20.2998 80.8 12.7998 93.8 20.0998Z" fill="#F9A81A"/>
<path d="M82.6 4.00023C82.2 3.40023 81.8 2.60023 81.2 2.20023C81 2.00023 80.7 2.30023 80.8 2.50023C81 3.20023 81.4 3.80023 81.7 4.50023C82 5.20023 82.2 5.90023 82.7 6.50023C83 6.80023 83.6 6.60023 83.6 6.10023C83.5 5.40023 83 4.70023 82.6 4.00023Z" fill="#FCEE32"/>
<path d="M130.7 109.4C130.7 111.8 128.8 113.7 126.4 113.7C124 113.7 122.1 111.8 122.1 109.4C122.1 107 124 105.1 126.4 105.1C128.8 105.1 130.7 107 130.7 109.4Z" fill="#F47F62"/>
<path d="M44.5 109.4C44.5 111.8 42.6 113.7 40.2 113.7C37.8 113.7 35.9 111.8 35.9 109.4C35.9 107 37.8 105.1 40.2 105.1C42.6 105.1 44.5 107 44.5 109.4Z" fill="#F47F62"/>
</g>
<defs>
<clipPath id="clip0">
<rect width="160.8" height="164" fill="white"/>
</clipPath>
</defs>
</svg>
