<svg width="34" height="30" viewBox="0 0 34 30" fill="none" xmlns="http://www.w3.org/2000/svg">
<path d="M18.9999 15.3001C18.9999 19.8001 18.9999 24.2001 18.9999 28.7001C18.9999 29.1001 19.1 29.6001 18.6 29.9001C18.1 30.1001 17.7999 29.7001 17.4999 29.4001C14.8999 27.2001 12.3 25.1001 9.59995 22.9001C9.29995 22.7001 9.09994 22.6001 8.79994 22.6001C7.19994 22.6001 5.49994 22.6001 3.89994 22.6001C1.89994 22.7001 1.19995 22.0001 0.599955 20.0001C0.0999546 18.1001 0.0999607 16.2001 0.199961 14.2001C0.299961 13.0001 0.299955 11.8001 0.599955 10.6001C0.799955 9.90006 1.09995 9.30006 1.49995 8.70006C1.99995 8.10006 2.59994 7.90006 3.39994 7.90006C5.19994 7.90006 6.99994 7.90006 8.79994 7.90006C9.19994 7.90006 9.49994 7.80006 9.79994 7.60006C12.3999 5.40006 15.1 3.20006 17.7 1.00006C17.8 0.900059 17.7999 0.900059 17.8999 0.800059C18.4999 0.400059 18.8999 0.600059 18.9999 1.30006C18.9999 1.50006 18.9999 1.80006 18.9999 2.00006C18.9999 6.50006 18.9999 10.9001 18.9999 15.3001Z" fill="#A3A3A3"/>
<path d="M28.7 17.2003C28.5 17.2003 28.4 17.4003 28.2 17.5003C27.4 18.3003 26.5 19.1003 25.7 20.0003C25.4 20.3003 25.1 20.4003 24.8 20.0003C24.5 19.6003 24.2 19.3003 23.8 19.0003C23.5 18.7003 23.5 18.5003 23.8 18.2003C24.7 17.4003 25.5 16.5003 26.4 15.6003C26.7 15.3003 26.7 15.2003 26.4 14.9003C25.5 14.1003 24.7 13.2003 23.8 12.3003C23.5 12.0003 23.5 11.8003 23.8 11.5003C24.2 11.2003 24.5 10.8003 24.9 10.4003C25.2 10.1003 25.4 10.1003 25.6 10.4003C26.4 11.3003 27.3 12.1003 28.1 13.0003C28.4 13.3003 28.6 13.3003 28.9 13.0003C29.7 12.1003 30.6 11.3003 31.4 10.5003C31.7 10.2003 31.9 10.2003 32.2 10.5003C32.5 10.9003 32.9 11.2003 33.2 11.5003C33.6 11.8003 33.5 12.0003 33.2 12.4003C32.4 13.2003 31.6 14.0003 30.8 14.8003C30.4 15.2003 30.4 15.4003 30.8 15.8003C31.6 16.6003 32.4 17.4003 33.3 18.2003C33.7 18.5003 33.6 18.8003 33.3 19.1003C32.9 19.4003 32.6 19.8003 32.2 20.2003C32 20.5003 31.8 20.4003 31.6 20.2003C30.7 19.3003 29.9 18.5003 29 17.6003C29 17.4003 28.8 17.3003 28.7 17.2003Z" fill="#A3A3A3"/>
</svg>
